<?xml version="1.0" encoding="UTF-8"?>
<svg id="Layer_1" data-name="Layer 1" xmlns="http://www.w3.org/2000/svg" viewBox="0 0 93.7 200">
  <path d="M90.89,153.76l-43.43,43.43c-3.76,3.76-9.86,3.74-13.59-.05l-14.37-14.56L2.8,165.88C1.01,164.08,0,161.65,0,159.12V68.26H.11l20.92,20.92c1.8,1.8,2.81,4.24,2.81,6.78v82.28l24.46-24.46c3.75-3.75,3.74-9.83-.02-13.57l-16.74-16.55,14.38-14.58c3.73-3.78,9.82-3.81,13.58-.06l31.38,31.18c3.75,3.74,3.76,9.82,.01,13.56Z"/>
  <path d="M93.7,40.88v90.85h-.11l-20.92-20.92c-1.8-1.8-2.81-4.23-2.81-6.77V21.75l-24.47,24.46c-3.75,3.75-3.74,9.84,.03,13.57l16.74,16.56-14.39,14.58c-3.72,3.78-9.81,3.81-13.58,.06L2.82,59.8c-3.76-3.74-3.76-9.82-.02-13.57L46.24,2.8c3.76-3.76,9.86-3.73,13.59,.05l14.37,14.56h-.01l16.71,16.71c1.79,1.79,2.8,4.22,2.8,6.76Z"/>
</svg>