<?xml version="1.0" encoding="UTF-8"?><svg xmlns="http://www.w3.org/2000/svg" xmlns:xlink="http://www.w3.org/1999/xlink" viewBox="0 0 512 512"><defs><radialGradient id="d" cx="341.43" cy="357.48" fx="341.43" fy="357.48" r="524.7" gradientUnits="userSpaceOnUse"><stop offset="0" stop-color="#bc1e2d"/><stop offset=".17" stop-color="#a01926" stop-opacity=".85"/><stop offset=".55" stop-color="#5a0e15" stop-opacity=".48"/><stop offset="1" stop-color="#000" stop-opacity="0"/></radialGradient></defs><g isolation="isolate"><g id="c"><rect x="0" y="0" width="512" height="512"/><circle cx="341.43" cy="357.48" r="524.7" fill="url(#d)" mix-blend-mode="screen" opacity=".61"/><g><path d="M329.25,237.11h-94.1s35.5,30.92,35.5,30.92l-88.33,114.33,43.29,43.89c6.86,6.96,18.08,7,24.98,.09l125.35-125.34c6.91-6.91,6.87-18.12-.08-24.98l-34.26-33.82c-3.29-3.25-7.74-5.08-12.37-5.08Z" fill="#fff"/><path d="M173.91,129.27l51.71,296.99-89.58-90.57c-3.3-3.3-5.16-7.78-5.16-12.45V80.51h.29l37.63,37.63c2.98,2.98,4.79,6.93,5.11,11.13Z" fill="#fff"/></g></g></g></svg>