<?xml version="1.0" standalone="no"?>
<!DOCTYPE svg PUBLIC "-//W3C//DTD SVG 20010904//EN"
 "http://www.w3.org/TR/2001/REC-SVG-20010904/DTD/svg10.dtd">
<svg version="1.0" xmlns="http://www.w3.org/2000/svg"
 width="555.000000pt" height="555.000000pt" viewBox="0 0 555.000000 555.000000"
 preserveAspectRatio="xMidYMid meet">
<g transform="translate(0.000000,555.000000) scale(0.100000,-0.100000)"
fill="#000000" stroke="none">
<path d="M475 5534 c-219 -53 -408 -243 -459 -464 -14 -57 -16 -330 -16 -2290
0 -2467 -5 -2280 67 -2430 50 -104 168 -222 273 -273 149 -72 -48 -67 2430
-67 2478 0 2281 -5 2430 67 104 50 223 169 273 273 72 149 67 -48 67 2430 0
2478 5 2281 -67 2430 -27 57 -56 95 -117 155 -93 92 -167 136 -282 165 -76 20
-118 20 -2308 19 -1911 -1 -2240 -3 -2291 -15z m1765 -1457 l5 -658 289 290
288 291 437 -429 c240 -236 599 -593 798 -793 l363 -363 -798 -797 -797 -797
-627 634 -628 633 0 1326 0 1326 333 -2 332 -3 5 -658z"/>
<path d="M2240 2414 l0 -979 490 490 c270 269 489 492 488 496 -2 3 -222 223
-490 488 l-488 484 0 -979z"/>
</g>
</svg>
